<svg xmlns="http://www.w3.org/2000/svg" xmlns:xlink="http://www.w3.org/1999/xlink" width="500" zoomAndPan="magnify" viewBox="0 0 375 374.999991" height="500" preserveAspectRatio="xMidYMid meet" version="1.0"><path fill="#ffcb67" d="M 317.160156 281.832031 C 305.511719 273.292969 287.65625 270.960938 276.007812 274.84375 C 264.363281 278.726562 244.953125 281.054688 233.308594 281.054688 L 216.226562 281.054688 C 210.015625 281.054688 204.582031 284.9375 202.25 290.371094 C 195.265625 309.007812 224.765625 304.347656 246.507812 307.453125 C 249.613281 307.453125 249.613281 311.335938 247.28125 312.886719 C 237.1875 317.546875 223.992188 322.203125 215.449219 322.203125 C 207.6875 322.203125 188.277344 327.640625 180.511719 325.308594 L 112.1875 298.914062 C 109.859375 298.136719 107.53125 298.914062 105.976562 299.6875 C 100.542969 302.796875 98.992188 311.335938 104.425781 315.992188 C 105.203125 316.769531 105.976562 316.769531 105.976562 317.546875 L 149.457031 345.496094 C 155.667969 349.378906 163.433594 353.261719 170.417969 354.8125 L 217.003906 367.234375 C 229.425781 373.445312 244.175781 375 258.152344 371.894531 L 338.898438 347.050781 L 338.898438 291.148438 C 331.132812 290.371094 321.039062 284.9375 317.160156 281.832031 Z M 317.160156 281.832031 " fill-opacity="1" fill-rule="nonzero"/><path fill="#ffffff" d="M 203.804688 293.476562 C 205.355469 288.042969 210.015625 284.160156 214.675781 284.160156 L 227.097656 284.160156 C 230.203125 290.371094 230.203125 297.359375 227.097656 303.570312 C 218.554688 302.796875 209.238281 303.570312 205.355469 298.914062 C 203.804688 297.359375 203.027344 295.808594 203.804688 293.476562 Z M 203.804688 293.476562 " fill-opacity="1" fill-rule="nonzero"/><path fill="#55b2e4" d="M 338.898438 279.503906 L 369.175781 279.503906 C 371.507812 279.503906 373.835938 281.832031 373.835938 284.160156 L 373.835938 352.484375 C 373.835938 354.8125 371.507812 357.144531 369.175781 357.144531 L 338.898438 357.144531 C 336.566406 357.144531 334.238281 354.8125 334.238281 352.484375 L 334.238281 284.160156 C 334.238281 281.832031 336.566406 279.503906 338.898438 279.503906 Z M 338.898438 279.503906 " fill-opacity="1" fill-rule="nonzero"/><path fill="#75c376" d="M 78.804688 185.558594 C 74.921875 186.335938 71.816406 190.21875 72.59375 194.875 L 90.449219 277.175781 C 91.226562 281.054688 95.109375 284.160156 99.765625 283.386719 L 276.785156 245.339844 C 280.667969 244.566406 283.773438 240.683594 282.996094 236.023438 L 265.140625 153.726562 C 262.035156 138.976562 250.386719 152.175781 78.804688 185.558594 Z M 78.804688 185.558594 " fill-opacity="1" fill-rule="nonzero"/><path fill="#269e48" d="M 95.886719 265.527344 L 82.6875 203.417969 C 88.121094 201.863281 92.003906 196.429688 90.449219 190.992188 L 247.28125 156.832031 C 248.835938 162.265625 254.269531 166.148438 259.703125 164.597656 L 272.902344 226.707031 C 267.46875 228.261719 263.585938 233.695312 265.140625 239.128906 L 108.308594 273.292969 C 106.753906 268.632812 101.320312 264.75 95.886719 265.527344 Z M 95.886719 265.527344 " fill-opacity="1" fill-rule="nonzero"/><path fill="#75c376" d="M 204.035156 210.175781 C 204.277344 211.292969 204.472656 212.417969 204.628906 213.550781 C 204.785156 214.679688 204.894531 215.8125 204.964844 216.949219 C 205.03125 218.082031 205.054688 219.210938 205.03125 220.335938 C 205.011719 221.460938 204.945312 222.574219 204.835938 223.679688 C 204.726562 224.785156 204.574219 225.875 204.375 226.949219 C 204.179688 228.027344 203.941406 229.082031 203.65625 230.113281 C 203.375 231.148438 203.050781 232.160156 202.6875 233.140625 C 202.320312 234.125 201.917969 235.078125 201.472656 236.003906 C 201.027344 236.925781 200.546875 237.816406 200.027344 238.671875 C 199.507812 239.527344 198.953125 240.34375 198.363281 241.121094 C 197.777344 241.898438 197.15625 242.632812 196.5 243.328125 C 195.847656 244.019531 195.164062 244.667969 194.453125 245.269531 C 193.742188 245.871094 193.007812 246.421875 192.246094 246.925781 C 191.480469 247.433594 190.699219 247.886719 189.890625 248.289062 C 189.085938 248.691406 188.261719 249.039062 187.421875 249.335938 C 186.578125 249.632812 185.722656 249.875 184.851562 250.0625 C 183.980469 250.253906 183.101562 250.386719 182.214844 250.460938 C 181.324219 250.539062 180.429688 250.5625 179.527344 250.527344 C 178.628906 250.492188 177.726562 250.40625 176.824219 250.257812 C 175.921875 250.113281 175.023438 249.914062 174.125 249.660156 C 173.230469 249.40625 172.339844 249.097656 171.460938 248.738281 C 170.578125 248.375 169.710938 247.960938 168.851562 247.496094 C 167.996094 247.03125 167.152344 246.519531 166.328125 245.953125 C 165.5 245.390625 164.695312 244.777344 163.910156 244.121094 C 163.125 243.460938 162.359375 242.761719 161.621094 242.015625 C 160.882812 241.269531 160.171875 240.484375 159.488281 239.660156 C 158.804688 238.832031 158.148438 237.972656 157.527344 237.074219 C 156.902344 236.175781 156.3125 235.246094 155.757812 234.285156 C 155.203125 233.324219 154.679688 232.335938 154.199219 231.320312 C 153.714844 230.304688 153.269531 229.265625 152.863281 228.207031 C 152.457031 227.144531 152.089844 226.066406 151.761719 224.972656 C 151.4375 223.878906 151.152344 222.773438 150.910156 221.652344 C 150.671875 220.535156 150.472656 219.410156 150.316406 218.277344 C 150.160156 217.148438 150.050781 216.015625 149.984375 214.882812 C 149.914062 213.746094 149.890625 212.617188 149.914062 211.492188 C 149.933594 210.367188 150 209.253906 150.109375 208.148438 C 150.21875 207.042969 150.371094 205.953125 150.570312 204.878906 C 150.765625 203.804688 151.007812 202.75 151.289062 201.714844 C 151.570312 200.679688 151.894531 199.671875 152.261719 198.6875 C 152.625 197.703125 153.03125 196.75 153.472656 195.824219 C 153.917969 194.902344 154.398438 194.011719 154.917969 193.15625 C 155.4375 192.300781 155.992188 191.484375 156.582031 190.707031 C 157.171875 189.929688 157.792969 189.195312 158.445312 188.503906 C 159.097656 187.808594 159.78125 187.164062 160.492188 186.558594 C 161.203125 185.957031 161.9375 185.40625 162.703125 184.902344 C 163.464844 184.398438 164.246094 183.941406 165.054688 183.539062 C 165.859375 183.136719 166.683594 182.789062 167.527344 182.492188 C 168.367188 182.195312 169.222656 181.953125 170.09375 181.765625 C 170.964844 181.578125 171.84375 181.445312 172.734375 181.367188 C 173.621094 181.289062 174.515625 181.265625 175.417969 181.300781 C 176.316406 181.335938 177.21875 181.425781 178.121094 181.570312 C 179.023438 181.714844 179.925781 181.914062 180.820312 182.167969 C 181.714844 182.421875 182.605469 182.730469 183.484375 183.089844 C 184.367188 183.453125 185.238281 183.867188 186.09375 184.332031 C 186.953125 184.796875 187.792969 185.3125 188.617188 185.875 C 189.445312 186.441406 190.25 187.050781 191.035156 187.707031 C 191.824219 188.367188 192.585938 189.066406 193.324219 189.8125 C 194.0625 190.558594 194.773438 191.34375 195.457031 192.167969 C 196.140625 192.996094 196.796875 193.855469 197.417969 194.753906 C 198.042969 195.652344 198.632812 196.582031 199.1875 197.542969 C 199.746094 198.503906 200.265625 199.492188 200.75 200.507812 C 201.230469 201.523438 201.675781 202.5625 202.082031 203.625 C 202.492188 204.683594 202.855469 205.761719 203.183594 206.855469 C 203.507812 207.949219 203.792969 209.058594 204.035156 210.175781 Z M 204.035156 210.175781 " fill-opacity="1" fill-rule="nonzero"/><path fill="#269e48" d="M 187.5 215.0625 C 186.722656 214.285156 185.171875 213.507812 183.617188 213.507812 C 182.066406 213.507812 181.289062 213.507812 178.960938 212.734375 L 177.40625 204.96875 C 178.960938 204.96875 180.511719 204.96875 182.066406 204.96875 C 182.066406 204.96875 182.839844 204.96875 182.839844 204.96875 C 183.617188 204.96875 183.617188 204.191406 184.394531 204.191406 C 184.394531 203.417969 184.394531 203.417969 184.394531 202.640625 C 184.394531 201.863281 183.617188 201.085938 182.066406 201.085938 C 179.734375 201.085938 178.183594 201.085938 175.855469 201.085938 L 175.078125 198.757812 C 175.078125 197.980469 175.078125 197.980469 174.300781 197.980469 C 173.523438 197.203125 172.75 197.980469 171.972656 198.757812 C 171.972656 198.757812 171.972656 199.535156 171.972656 200.308594 L 172.75 202.640625 C 171.972656 202.640625 170.417969 202.640625 168.867188 204.191406 C 167.3125 204.96875 166.539062 206.523438 166.539062 208.074219 C 165.761719 209.628906 165.761719 211.179688 166.539062 212.734375 C 166.539062 214.285156 167.3125 215.839844 168.867188 216.613281 C 169.644531 217.390625 171.195312 218.167969 172.75 218.167969 C 174.300781 218.167969 175.078125 218.945312 177.40625 218.945312 L 178.960938 225.933594 C 176.628906 225.933594 175.078125 225.933594 172.75 225.933594 C 172.75 225.933594 171.972656 225.933594 171.972656 225.933594 C 171.195312 225.933594 171.195312 226.707031 170.417969 226.707031 C 170.417969 227.484375 169.644531 227.484375 170.417969 228.261719 C 170.417969 229.039062 170.417969 229.039062 171.195312 229.8125 C 171.195312 229.8125 171.972656 230.589844 172.75 230.589844 C 175.078125 231.367188 178.183594 231.367188 180.511719 230.589844 L 181.289062 232.917969 C 181.289062 233.695312 181.289062 233.695312 182.066406 233.695312 C 182.066406 233.695312 182.839844 233.695312 183.617188 233.695312 C 184.394531 233.695312 184.394531 233.695312 184.394531 232.917969 C 184.394531 232.917969 184.394531 232.144531 184.394531 231.367188 L 183.617188 229.039062 C 185.171875 228.261719 186.722656 227.484375 187.5 226.707031 C 189.054688 225.933594 189.828125 224.378906 190.605469 222.824219 C 191.382812 221.273438 191.382812 219.71875 190.605469 218.945312 C 189.054688 217.390625 188.277344 216.613281 187.5 215.0625 Z M 179.734375 218.167969 C 181.289062 218.167969 182.066406 218.167969 182.839844 218.945312 C 183.617188 218.945312 184.394531 219.71875 184.394531 220.496094 C 185.171875 222.824219 183.617188 224.378906 181.289062 225.15625 Z M 172.75 212.734375 C 171.972656 212.734375 171.195312 211.957031 171.195312 211.179688 C 171.195312 210.402344 171.195312 209.628906 171.972656 208.851562 C 172.75 208.074219 173.523438 207.296875 174.300781 207.296875 L 175.855469 214.285156 C 174.300781 212.734375 173.523438 212.734375 172.75 212.734375 Z M 172.75 212.734375 " fill-opacity="1" fill-rule="nonzero"/><path fill="#75c376" d="M 231.367188 229.742188 L 257.925781 224.003906 L 259.402344 230.832031 L 232.839844 236.574219 Z M 231.367188 229.742188 " fill-opacity="1" fill-rule="nonzero"/><path fill="#75c376" d="M 95.542969 200.996094 L 122.105469 195.257812 L 123.582031 202.085938 L 97.019531 207.828125 Z M 95.542969 200.996094 " fill-opacity="1" fill-rule="nonzero"/><path fill="#000000" d="M 282.996094 236.023438 L 265.140625 153.726562 C 262.035156 139.75 245.730469 152.949219 167.3125 166.925781 L 188.277344 264.75 L 276.785156 245.339844 C 281.445312 244.566406 283.773438 239.90625 282.996094 236.023438 Z M 282.996094 236.023438 " fill-opacity="0.0588" fill-rule="nonzero"/><path fill="#ffcb67" d="M 209.238281 121.117188 C 202.25 109.472656 195.265625 104.039062 188.277344 101.707031 C 204.582031 103.261719 217.003906 131.210938 215.449219 128.882812 C 217.78125 138.199219 218.554688 145.1875 221.660156 155.28125 L 236.414062 152.175781 C 235.636719 139.75 234.082031 125 233.308594 123.445312 C 231.753906 115.683594 201.476562 89.285156 193.710938 75.308594 C 188.277344 65.21875 175.078125 61.335938 163.433594 60.558594 C 154.113281 60.558594 138.585938 53.570312 114.519531 50.464844 C 109.859375 48.914062 104.425781 48.136719 98.992188 47.359375 L 61.722656 102.484375 C 62.5 102.484375 62.5 103.261719 63.277344 103.261719 C 71.039062 104.039062 76.476562 107.144531 90.449219 124.222656 C 109.859375 148.292969 123.058594 150.621094 123.058594 150.621094 C 123.058594 150.621094 141.691406 159.9375 149.457031 173.136719 C 157.21875 186.335938 164.207031 193.324219 167.3125 197.203125 C 170.417969 200.308594 175.855469 211.957031 185.171875 205.746094 C 189.054688 203.417969 191.382812 197.980469 191.382812 193.324219 C 190.605469 186.335938 187.5 175.464844 175.078125 164.597656 C 156.445312 146.738281 157.21875 135.09375 157.21875 135.09375 C 157.21875 135.09375 157.996094 104.039062 170.417969 114.90625 C 177.40625 121.117188 181.289062 122.671875 182.839844 123.445312 C 185.945312 124.222656 189.054688 137.421875 200.699219 145.960938 C 203.027344 147.515625 201.476562 147.515625 205.355469 159.9375 L 220.109375 156.832031 C 212.34375 131.210938 217.003906 132.765625 209.238281 121.117188 Z M 209.238281 121.117188 " fill-opacity="1" fill-rule="nonzero"/><path fill="#dfad55" d="M 215.449219 128.882812 C 215.449219 128.105469 213.121094 123.445312 213.121094 124.222656 C 207.6875 114.128906 197.59375 102.484375 188.277344 101.707031 C 213.898438 112.578125 215.449219 140.527344 220.886719 155.28125 L 222.4375 155.28125 C 219.332031 145.1875 217.78125 138.199219 215.449219 128.882812 Z M 215.449219 128.882812 " fill-opacity="1" fill-rule="nonzero"/><path fill="#e5e5e4" d="M 185.945312 201.863281 C 192.160156 196.429688 189.828125 190.992188 188.277344 187.886719 C 184.394531 180.902344 178.183594 172.359375 171.195312 177.019531 C 164.207031 181.675781 163.433594 184.78125 164.984375 188.664062 C 168.089844 194.097656 171.195312 197.980469 174.300781 201.085938 C 180.511719 208.074219 185.945312 202.640625 185.945312 201.863281 Z M 185.945312 201.863281 " fill-opacity="1" fill-rule="nonzero"/><path fill="#e5e5e4" d="M 66.382812 104.039062 L 102.097656 50.464844 C 104.425781 47.359375 103.648438 41.925781 99.765625 39.597656 L 85.015625 29.503906 C 81.132812 27.175781 75.699219 27.949219 73.371094 31.832031 L 37.65625 85.402344 C 34.550781 88.507812 36.101562 93.945312 39.984375 96.273438 L 54.734375 106.367188 C 58.617188 108.695312 63.277344 107.917969 66.382812 104.039062 Z M 66.382812 104.039062 " fill-opacity="1" fill-rule="nonzero"/><path fill="#5b5c5c" d="M 46.195312 102.484375 L 92.78125 32.609375 C 94.332031 30.28125 93.554688 26.398438 91.226562 24.84375 L 56.289062 1.554688 C 54.734375 0 50.855469 0.777344 49.300781 3.105469 L 2.71875 72.980469 C 1.164062 75.3125 1.941406 79.191406 4.269531 80.746094 L 39.207031 104.039062 C 40.761719 106.367188 44.644531 105.589844 46.195312 102.484375 Z M 46.195312 102.484375 " fill-opacity="1" fill-rule="nonzero"/><path fill="#000000" d="M 92.003906 24.84375 L 57.066406 1.554688 C 54.734375 0 50.855469 0.777344 49.300781 3.105469 L 29.113281 32.609375 L 73.371094 62.886719 L 93.554688 33.386719 C 95.109375 30.28125 94.332031 27.175781 92.003906 24.84375 Z M 92.003906 24.84375 " fill-opacity="0.0588" fill-rule="nonzero"/><path fill="#ffffff" d="M 44.644531 86.179688 C 44.644531 86.535156 44.609375 86.890625 44.539062 87.242188 C 44.46875 87.589844 44.367188 87.929688 44.230469 88.261719 C 44.09375 88.589844 43.925781 88.902344 43.726562 89.199219 C 43.527344 89.496094 43.304688 89.769531 43.050781 90.023438 C 42.796875 90.277344 42.523438 90.5 42.226562 90.699219 C 41.929688 90.898438 41.617188 91.066406 41.289062 91.203125 C 40.957031 91.335938 40.617188 91.441406 40.269531 91.511719 C 39.917969 91.582031 39.566406 91.613281 39.207031 91.613281 C 38.851562 91.613281 38.496094 91.582031 38.148438 91.511719 C 37.796875 91.441406 37.457031 91.335938 37.128906 91.203125 C 36.796875 91.066406 36.484375 90.898438 36.1875 90.699219 C 35.890625 90.5 35.617188 90.277344 35.363281 90.023438 C 35.113281 89.769531 34.886719 89.496094 34.6875 89.199219 C 34.492188 88.902344 34.324219 88.589844 34.1875 88.261719 C 34.050781 87.929688 33.949219 87.589844 33.878906 87.242188 C 33.808594 86.890625 33.773438 86.535156 33.773438 86.179688 C 33.773438 85.824219 33.808594 85.46875 33.878906 85.121094 C 33.949219 84.769531 34.050781 84.429688 34.1875 84.101562 C 34.324219 83.769531 34.492188 83.457031 34.6875 83.160156 C 34.886719 82.863281 35.113281 82.589844 35.363281 82.335938 C 35.617188 82.085938 35.890625 81.859375 36.1875 81.660156 C 36.484375 81.464844 36.796875 81.296875 37.128906 81.160156 C 37.457031 81.023438 37.796875 80.917969 38.148438 80.851562 C 38.496094 80.78125 38.851562 80.746094 39.207031 80.746094 C 39.566406 80.746094 39.917969 80.78125 40.269531 80.851562 C 40.617188 80.917969 40.957031 81.023438 41.289062 81.160156 C 41.617188 81.296875 41.929688 81.464844 42.226562 81.660156 C 42.523438 81.859375 42.796875 82.085938 43.050781 82.335938 C 43.304688 82.589844 43.527344 82.863281 43.726562 83.160156 C 43.925781 83.457031 44.09375 83.769531 44.230469 84.101562 C 44.367188 84.429688 44.46875 84.769531 44.539062 85.121094 C 44.609375 85.46875 44.644531 85.824219 44.644531 86.179688 Z M 44.644531 86.179688 " fill-opacity="1" fill-rule="nonzero"/><path fill="#000000" d="M 369.175781 279.503906 L 338.898438 279.503906 C 336.566406 279.503906 334.238281 281.832031 334.238281 284.160156 L 334.238281 318.324219 L 373.835938 318.324219 L 373.835938 284.160156 C 373.835938 281.832031 371.507812 279.503906 369.175781 279.503906 Z M 369.175781 279.503906 " fill-opacity="0.0588" fill-rule="nonzero"/></svg>