<svg width="101" height="101" viewBox="0 0 101 101" fill="none" xmlns="http://www.w3.org/2000/svg">
  <path
    d="M37.8021 0.0475218C38.6603 0.214132 39.5264 0.336485 40.3691 0.549954C48.8387 2.68812 54.2439 7.96585 56.5848 16.3831C56.6553 16.6435 56.7257 16.883 56.7988 17.1303C56.7988 17.1511 56.8431 17.1615 56.8718 17.1771C62.7414 12.4079 68.9919 11.5436 75.4615 15.7609C80.9711 19.3509 82.7398 25.1328 81.0155 32.8645C83.2042 32.8645 85.3773 32.737 87.5373 32.9036C89.2329 33.0363 90.9938 33.2863 92.5617 33.9006C98.2278 36.129 101.431 42.2442 100.26 48.2473C99.6881 51.1448 98.1344 53.7576 95.8598 55.6467C93.5853 57.5358 90.7285 58.5862 87.7694 58.6214C85.1451 58.6475 82.5181 58.6214 79.7946 58.6214V57.4734C79.7946 51.3244 79.7946 45.1755 79.7946 39.0265C79.7946 33.4294 76.0928 29.7172 70.5154 29.7146C61.2753 29.7146 52.0344 29.7224 42.7925 29.738C42.2331 29.7584 41.6987 29.974 41.2821 30.3472C34.7499 36.7426 28.2437 43.164 21.7637 49.6115C21.4295 49.9791 21.234 50.4512 21.2106 50.947C21.1584 53.4487 21.1845 55.9531 21.1845 58.4184C21.0958 58.4991 21.0489 58.5798 21.0019 58.5772C17.6576 58.5225 14.274 58.7542 10.974 58.3377C5.81918 57.6842 1.62697 53.2378 0.700876 48.0339C0.656528 47.7736 0.567827 47.5366 0.5 47.2893V44.1654C0.570103 44.0228 0.626028 43.8737 0.666962 43.7202C1.61654 38.321 5.40439 34.3041 10.7105 33.1639C11.8714 32.9036 13.0766 32.8775 14.3627 32.7344V31.6931C14.3627 28.1474 14.3393 24.5991 14.3758 21.0534C14.4567 12.5407 19.8697 4.65274 27.8081 1.6121C29.6968 0.888385 31.7211 0.547351 33.7012 0.0292969L37.8021 0.0475218Z"
    fill="#D1D5DE" />
  <path
    d="M29.2148 100.014C27.5714 99.2615 27.0157 97.9937 27.0235 96.1922C27.0783 84.0583 27.0522 71.9218 27.0522 59.7853V58.4628H28.1296C32.5879 58.4628 37.0462 58.5018 41.5045 58.4394C45.7959 58.3795 49.2133 55.4508 50.0063 51.2465C50.1177 50.5398 50.164 49.8243 50.1446 49.1092C50.1446 44.9778 50.1446 40.8464 50.1446 36.7124V35.5747H70.5552C72.8404 35.5747 73.9465 36.6915 73.9465 38.9928C73.9465 45.0116 73.9465 51.0304 73.9465 57.0492V57.7703C71.6769 58.291 69.4752 58.6789 67.3465 59.3323C64.3856 60.2226 61.7977 61.8393 59.429 63.8256C59.0329 64.1305 58.5492 64.3002 58.049 64.3098C53.202 64.3436 48.3524 64.3228 43.5028 64.3332C41.901 64.3332 40.7376 65.1532 40.3723 66.4757C39.8506 68.3735 41.2097 70.1594 43.2576 70.1776C46.4793 70.2062 49.7011 70.1776 52.9229 70.1776H54.1359C54.0003 70.5134 53.9011 70.7633 53.7994 71.0132C53.2411 72.3956 52.6098 73.7545 52.1507 75.1785C51.9237 75.8788 51.629 76.0662 50.9324 76.0558C48.4281 76.0193 45.9211 76.0298 43.4167 76.0558C41.9219 76.0558 40.808 76.8368 40.401 78.0916C40.2577 78.5257 40.2194 78.9877 40.2893 79.4395C40.3593 79.8913 40.5354 80.3201 40.8034 80.6909C41.0714 81.0617 41.4236 81.3639 41.8311 81.5727C42.2386 81.7815 42.6899 81.8911 43.148 81.8924C45.4254 81.9366 47.7054 81.8924 49.9828 81.908H50.9637C51.2455 83.8214 51.3941 85.6437 51.7933 87.4061C52.8629 92.1337 55.2472 96.1349 58.7794 99.4567C58.9577 99.639 59.1266 99.8301 59.2855 100.029L29.2148 100.014Z"
    fill="#E3E6EB" />
  <path
    d="M73.1639 100.013C72.2848 99.8155 71.3952 99.6463 70.5239 99.4172C62.3456 97.2643 56.6507 89.6341 57.0081 81.3244C57.1598 77.1955 58.7179 73.2416 61.4251 70.1155C64.1323 66.9894 67.8268 64.8779 71.8987 64.1297C81.9866 62.3074 91.3989 69.1645 93.0137 79.5021C94.5189 89.1525 87.3788 98.5217 77.5257 99.8364C77.3047 99.8813 77.0869 99.9404 76.8735 100.013H73.1639ZM75.0578 86.393C75.6344 86.997 76.0596 87.4864 76.5266 87.9289C77.7996 89.1264 79.5709 89.1238 80.724 87.9446C81.877 86.7653 81.8483 85.0523 80.6744 83.8209C80.1454 83.3206 79.5907 82.8479 79.0127 82.4048C79.7379 81.7513 80.2831 81.3296 80.7422 80.8298C81.0101 80.5549 81.2204 80.2296 81.361 79.8728C81.5016 79.5159 81.5696 79.1348 81.5611 78.7515C81.5526 78.3682 81.4677 77.9904 81.3115 77.6401C81.1552 77.2899 80.9307 76.9742 80.6509 76.7114C80.1023 76.1917 79.3733 75.9043 78.6169 75.9097C77.8605 75.915 77.1356 76.2126 76.5944 76.74C76.1013 77.2034 75.6683 77.7267 75.0292 78.4113C74.5257 77.8074 74.1683 77.3023 73.7248 76.8754C72.4413 75.618 70.6178 75.592 69.4543 76.7765C68.2908 77.961 68.3482 79.7104 69.5665 80.973C70.0048 81.4311 70.5161 81.819 71.0952 82.3319C70.4065 82.9775 69.8769 83.4122 69.4178 83.9121C68.9013 84.4644 68.618 85.194 68.6268 85.9494C68.6355 86.7048 68.9356 87.4277 69.4648 87.968C69.9977 88.5048 70.7197 88.8129 71.4769 88.8265C72.2341 88.8401 72.9667 88.5582 73.5187 88.0409C74.0196 87.5827 74.4474 87.0438 75.0448 86.393H75.0578Z"
    fill="#E3E6EB" />
  <path
    d="M44.2479 35.8712C44.2635 36.1523 44.2896 36.4309 44.2896 36.7121C44.2896 40.8773 44.2896 45.0426 44.2896 49.2078C44.2896 51.5169 43.1992 52.6103 40.8983 52.6129C36.6687 52.6129 32.4408 52.6129 28.2147 52.6129H27.5625C32.9782 47.0028 38.4461 41.3329 43.914 35.6655L44.2479 35.8712Z"
    fill="#E3E6EB" />
</svg>
